<svg id="Layer_1" data-name="Layer 1" xmlns="http://www.w3.org/2000/svg" viewBox="0 0 446.57 446.56">
  <defs>
    <style>
      .cls-1 {
        font-size: 58px;
        font-family: DMSans-Medium, DM Sans;
        font-weight: 500;
      }
    </style>
  </defs>
  <text class="cls-1" transform="translate(142.64 68.04) rotate(-21.65)">K</text>
  <text class="cls-1" transform="translate(172.46 56.03) rotate(-11.52)">a</text>
  <text class="cls-1" transform="translate(202.9 50.11) rotate(-3.04)">r</text>
  <text class="cls-1" transform="translate(223.99 49.15) rotate(2.48)">l</text>
  <text class="cls-1" transform="translate(236.76 49.04) rotate(9.68)">a</text>
  <text class="cls-1" transform="translate(267.4 54.76) rotate(17.06)"> </text>
  <text class="cls-1" transform="translate(280.4 57.68) rotate(25.56)">A</text>
  <text class="cls-1" transform="matrix(0.81, 0.58, -0.58, 0.81, 311.85, 72.67)">v</text>
  <text class="cls-1" transform="translate(334.8 88.74) rotate(44.98)">a</text>
  <text class="cls-1" transform="matrix(0.61, 0.79, -0.79, 0.61, 356.5, 111.13)">l</text>
  <text class="cls-1" transform="translate(364.91 120.7) rotate(59.73)">o</text>
  <text class="cls-1" transform="matrix(0.34, 0.94, -0.94, 0.34, 381.53, 149.33)">s</text>
  <text class="cls-1" transform="translate(390.99 176.21) rotate(76.78)"> </text>
  <text class="cls-1" transform="matrix(0.13, 0.99, -0.99, 0.13, 394.39, 189.4)">/</text>
  <text class="cls-1" transform="translate(397.05 211.76) rotate(88.64)"> </text>
  <text class="cls-1" transform="translate(398.45 225.04) rotate(97.19)">D</text>
  <text class="cls-1" transform="translate(393.43 263.59) rotate(108.88)">e</text>
  <text class="cls-1" transform="translate(382.95 294.1) rotate(118.85)">s</text>
  <text class="cls-1" transform="translate(368.85 318.9) rotate(125.76)">i</text>
  <text class="cls-1" transform="translate(361.51 330.21) rotate(133.08)">g</text>
  <text class="cls-1" transform="matrix(-0.8, 0.6, -0.6, -0.8, 340.58, 352.92)">n</text>
  <text class="cls-1" transform="translate(314.57 372.4) rotate(154.04)">e</text>
  <text class="cls-1" transform="translate(285.26 386.28) rotate(162.82)">r</text>
  <text class="cls-1" transform="matrix(-0.98, 0.2, -0.2, -0.98, 265.11, 392.37)"> </text>
  <text class="cls-1" transform="matrix(-1, 0.1, -0.1, -1, 251.8, 395.35)">/</text>
  <text class="cls-1" transform="translate(229.43 397.38) rotate(-179.07)"> </text>
  <text class="cls-1" transform="translate(216.08 398.4) rotate(-170.79)">C</text>
  <text class="cls-1" transform="translate(176.32 391.76) rotate(-158.71)">o</text>
  <text class="cls-1" transform="translate(145.48 380.05) rotate(-147.46)">d</text>
  <text class="cls-1" transform="translate(115.7 361.07) rotate(-136.45)">e</text>
  <text class="cls-1" transform="translate(92.42 338.48) rotate(-127.78)">r</text>
  <text class="cls-1" transform="translate(79.63 321.76) rotate(-122.08)"> </text>
  <text class="cls-1" transform="translate(72.15 310.35) rotate(-116.12)">/</text>
  <text class="cls-1" transform="matrix(-0.34, -0.94, 0.94, -0.34, 62.4, 290.06)"> </text>
  <text class="cls-1" transform="translate(56.72 278.02) rotate(-101.21)">C</text>
  <text class="cls-1" transform="translate(49.56 238.05) rotate(-91.21)">r</text>
  <text class="cls-1" transform="translate(48.54 218.19) rotate(-82.85)">e</text>
  <text class="cls-1" transform="matrix(0.3, -0.95, 0.95, 0.3, 52.46, 186.26)">a</text>
  <text class="cls-1" transform="translate(61.8 157.31) rotate(-63.88)">t</text>
  <text class="cls-1" transform="matrix(0.57, -0.82, 0.82, 0.57, 70.62, 137.94)">o</text>
  <text class="cls-1" transform="translate(89.98 110.91) rotate(-46.24)">r</text>
  <text class="cls-1" transform="translate(104.65 95.78) rotate(-40.56)"> </text>
  <text class="cls-1" transform="matrix(0.82, -0.57, 0.57, 0.82, 114.83, 86.7)">/</text>
</svg>
