<svg id="Layer_1" data-name="Layer 1" xmlns="http://www.w3.org/2000/svg" viewBox="0 0 361.37 262.5"><defs><style>.cls-1{fill:#171819;}</style></defs><rect class="cls-1" x="0.51" y="5.25" width="22.54" height="255.5"/><rect class="cls-1" x="160.33" y="5.83" width="22.54" height="255.5"/><polygon class="cls-1" points="19.66 147.98 1.55 130.41 96.11 4.01 114.23 21.58 19.66 147.98"/><polygon class="cls-1" points="113 223.95 96.26 243.03 2.76 136.55 19.51 117.47 113 223.95"/><polygon class="cls-1" points="99.52 124.54 78.61 105.7 151.7 0.42 172.62 19.25 99.52 124.54"/><polygon class="cls-1" points="92.37 259.34 74.23 242.81 144.28 143.16 162.41 159.69 92.37 259.34"/><polygon class="cls-1" points="164.09 159.63 145.98 180.25 82.47 107.92 100.57 87.3 164.09 159.63"/><rect class="cls-1" x="227.94" y="5.83" width="22.54" height="255.5"/><polygon class="cls-1" points="261.45 153.58 241.87 134.58 335.39 9.59 354.97 28.58 261.45 153.58"/><polygon class="cls-1" points="353.33 228.13 336.58 247.2 243.08 140.72 259.83 121.65 353.33 228.13"/><rect class="cls-1" x="213.26" y="114.98" width="24.5" height="78.37" transform="translate(50.47 363.18) rotate(-90)"/><rect class="cls-1" x="217.1" y="-5.77" width="24.5" height="78.37" transform="translate(175.06 246.27) rotate(-90)"/><rect class="cls-1" x="189.19" y="85.61" width="24.5" height="361.12" transform="translate(-85.61 451.1) rotate(-90)"/><rect class="cls-1" x="189.44" y="-151.81" width="24.5" height="361.12" transform="translate(152.06 213.94) rotate(-90)"/><rect class="cls-1" x="338.58" y="7" width="22.54" height="255.5"/></svg>